<svg xmlns="http://www.w3.org/2000/svg" width="31.739" height="28.399" viewBox="254.51 168.012 31.739 28.399"><g data-name="CompositeLayer"><path d="M9.263.621a35.383 35.383 0 0 1 13.201 0c4.398.672 7.864 3.787 8.593 7.727.91 3.86.91 7.846 0 11.706-.733 3.963-4.234 7.09-8.667 7.738-4.304.81-8.75.81-13.053 0-4.507-.659-8.05-3.88-8.7-7.936a25.444 25.444 0 0 1 0-11.31C1.282 4.512 4.79 1.304 9.262.621Z" fill-rule="evenodd" fill="url(&quot;#a&quot;)" transform="translate(254.51 168.012)" data-name="Vector"/><path d="M265.368 182.797a.411.411 0 0 1-.194-.048.357.357 0 0 1-.138-.13.308.308 0 0 1 .02-.347l5.01-6.672a.366.366 0 0 1 .136-.11.413.413 0 0 1 .355 0 .365.365 0 0 1 .135.11l5.012 6.672a.308.308 0 0 1 .02.346.357.357 0 0 1-.139.131.41.41 0 0 1-.194.048h-2.646v4.883a.32.32 0 0 1-.11.238.4.4 0 0 1-.266.099h-3.98a.4.4 0 0 1-.265-.099.32.32 0 0 1-.11-.238v-4.883h-2.646Z" fill="#fff" fill-rule="evenodd" data-name="Vector"/></g><defs><radialGradient fx=".773" fy=".93" cx=".773" cy=".93" fr="0" r=".961" gradientTransform="matrix(-.52012 0 0 -.52033 .902 .984)" id="a"><stop stop-color="#ffeb38" offset="0"/><stop stop-color="#f90" offset="1"/></radialGradient></defs></svg>