<svg xmlns="http://www.w3.org/2000/svg" width="32.22" height="28.83" viewBox="54.584 168.088 32.22 28.83"><g data-name="CompositeLayer"><path d="M8.414.705c3.953-.94 8.038-.94 11.991 0C24.4 1.467 27.548 5 28.21 9.47a35.88 35.88 0 0 1 0 13.28c-.665 4.497-3.846 8.044-7.872 8.78-3.91.918-7.948.918-11.857 0-4.094-.748-7.312-4.402-7.903-9.004a35.893 35.893 0 0 1 0-12.831C1.165 5.119 4.352 1.48 8.414.705Z" fill-rule="evenodd" fill="url(&quot;#a&quot;)" transform="rotate(-90 125.75 71.167)" data-name="Vector"/><path d="M71.359 187.055a.316.316 0 0 1-.055.176.368.368 0 0 1-.148.125.42.42 0 0 1-.393-.017l-7.57-4.552a.359.359 0 0 1-.124-.124.314.314 0 0 1 0-.321.359.359 0 0 1 .125-.124l7.57-4.552a.413.413 0 0 1 .54.108.316.316 0 0 1 .055.176v2.403h5.54c.1 0 .198.036.27.1a.325.325 0 0 1 .112.242v3.615c0 .09-.04.177-.112.242a.406.406 0 0 1-.27.1h-5.54v2.403Z" fill="#fff" fill-rule="evenodd" data-name="Vector"/></g><defs><radialGradient fx=".824" fy=".426" cx=".824" cy=".426" fr="0" r="1.13" gradientTransform="matrix(-.39594 .19722 -.1973 -.3961 .742 .831)" id="a"><stop stop-color="#c83b3b" offset="0"/><stop stop-color="#fb4949" offset="1"/></radialGradient></defs></svg>